<svg width="20" height="19" viewBox="0 0 20 19" fill="none" xmlns="http://www.w3.org/2000/svg">
<path d="M9.28816 0.958173C9.58578 0.0332744 10.8944 0.0332739 11.192 0.958173L12.6851 5.59812C12.8182 6.01151 13.2028 6.2918 13.6371 6.2918H18.4893C19.4556 6.2918 19.86 7.52648 19.0808 8.0981L15.1387 10.99C14.7916 11.2446 14.6464 11.6928 14.7782 12.1026L16.2801 16.7696C16.5771 17.6926 15.5184 18.4558 14.7366 17.8822L10.8316 15.0175C10.4795 14.7593 10.0006 14.7593 9.64858 15.0175L5.74354 17.8822C4.96172 18.4558 3.90309 17.6926 4.20011 16.7696L5.70192 12.1026C5.83379 11.6928 5.6886 11.2446 5.34149 10.99L1.3994 8.0981C0.620205 7.52648 1.02452 6.2918 1.9909 6.2918H6.84312C7.27738 6.2918 7.66201 6.01151 7.79504 5.59812L9.28816 0.958173Z" fill="#F1AF23"/>
</svg>
