<svg width="164" height="56" viewBox="0 0 164 56" fill="none" xmlns="http://www.w3.org/2000/svg">
<g filter="url(#filter0_d_88_1036)">
<rect x="4" width="156" height="48" rx="24" fill="#F1AF23"/>
</g>
<path d="M57.3431 15.24V33.76H60.0231V15.24H57.3431ZM59.3231 22.32V24.5H62.5831V22.32H59.3231ZM52.4831 17.16V17.62C52.4831 22.64 50.1831 26.04 45.3231 28.56L46.8031 30.58C52.9631 27.48 55.0831 22.72 55.0831 17.16H52.4831ZM46.3431 17.16V19.3H53.8431V17.16H46.3431ZM76.6216 15.26V25.22H79.3016V15.26H76.6216ZM66.9816 26.02V33.58H79.3016V26.02H76.6616V27.74H69.6016V26.02H66.9816ZM69.6016 29.78H76.6616V31.46H69.6016V29.78ZM69.2216 16.02C66.3416 16.02 64.1816 17.84 64.1816 20.4C64.1816 22.96 66.3416 24.78 69.2216 24.78C72.1016 24.78 74.2416 22.96 74.2416 20.4C74.2416 17.84 72.1016 16.02 69.2216 16.02ZM69.2216 18.22C70.6216 18.22 71.6416 19.04 71.6416 20.4C71.6416 21.78 70.6216 22.58 69.2216 22.58C67.8016 22.58 66.7816 21.78 66.7816 20.4C66.7816 19.04 67.8016 18.22 69.2216 18.22ZM94.18 15.26V33.78H96.82V15.26H94.18ZM96.22 22.48V24.7H99.5V22.48H96.22ZM82.22 18V20.12H93V18H82.22ZM87.64 21.16C84.94 21.16 82.94 23 82.94 25.58C82.94 28.16 84.94 30 87.64 30C90.34 30 92.34 28.16 92.34 25.58C92.34 23 90.34 21.16 87.64 21.16ZM87.64 23.32C88.9 23.32 89.8 24.16 89.8 25.58C89.8 27 88.9 27.84 87.64 27.84C86.38 27.84 85.48 27 85.48 25.58C85.48 24.16 86.38 23.32 87.64 23.32ZM86.3 15.56V18.8H88.96V15.56H86.3ZM113.458 15.26V33.78H116.138V15.26H113.458ZM107.998 17.18V17.66C107.998 22.62 106.078 25.98 100.758 28.54L102.138 30.66C108.718 27.48 110.638 22.84 110.638 17.18H107.998ZM101.738 17.18V19.28H109.258V17.18H101.738Z" fill="white"/>
<defs>
<filter id="filter0_d_88_1036" x="0" y="0" width="164" height="56" filterUnits="userSpaceOnUse" color-interpolation-filters="sRGB">
<feFlood flood-opacity="0" result="BackgroundImageFix"/>
<feColorMatrix in="SourceAlpha" type="matrix" values="0 0 0 0 0 0 0 0 0 0 0 0 0 0 0 0 0 0 127 0" result="hardAlpha"/>
<feOffset dy="4"/>
<feGaussianBlur stdDeviation="2"/>
<feComposite in2="hardAlpha" operator="out"/>
<feColorMatrix type="matrix" values="0 0 0 0 0 0 0 0 0 0 0 0 0 0 0 0 0 0 0.25 0"/>
<feBlend mode="normal" in2="BackgroundImageFix" result="effect1_dropShadow_88_1036"/>
<feBlend mode="normal" in="SourceGraphic" in2="effect1_dropShadow_88_1036" result="shape"/>
</filter>
</defs>
</svg>
