<svg width="251" height="66" viewBox="0 0 251 66" fill="none" xmlns="http://www.w3.org/2000/svg">
<path d="M227.089 51.6012C227.089 52.7683 226.305 54.2136 224.211 55.493C222.159 56.7472 219.171 57.6012 215.743 57.6012C212.316 57.6012 209.328 56.7472 207.275 55.493C205.182 54.2136 204.398 52.7683 204.398 51.6012C204.398 50.434 205.182 48.9888 207.275 47.7093C209.328 46.4551 212.316 45.6012 215.743 45.6012C219.171 45.6012 222.159 46.4551 224.211 47.7093C226.305 48.9888 227.089 50.434 227.089 51.6012Z" stroke="#FFB74B" stroke-width="4.8"/>
<rect width="4.78095" height="32.4" rx="2.39048" transform="matrix(1 0 0.000626267 1 228.293 8.40039)" fill="#FFB74B"/>
<rect width="4.8" height="14.3429" rx="2.4" transform="matrix(0 -1 1 -0.00053562 218.73 26.4082)" fill="#FFB74B"/>
<rect width="4.78095" height="32.4" rx="2.39048" transform="matrix(1 0 0.000541039 1 218.731 8.40039)" fill="#FFB74B"/>
<rect width="4.8" height="11.9524" rx="2.4" transform="matrix(0 -1 1 -0.00053562 196.801 13.207)" fill="#FFB74B"/>
<rect width="4.8" height="26.2952" rx="2.4" transform="matrix(0 -1 1 -0.000636657 190.049 20.4131)" fill="#FFB74B"/>
<path d="M209.929 31.8008C209.929 35.4549 206.981 38.4008 203.365 38.4008C199.748 38.4008 196.8 35.4549 196.8 31.8008C196.8 28.1467 199.748 25.2008 203.365 25.2008C206.981 25.2008 209.929 28.1467 209.929 31.8008Z" stroke="#FFB74B" stroke-width="4.8"/>
<rect width="4.8" height="45.419" rx="2.4" transform="matrix(0 -1 1 -0.000540742 135.066 39.624)" fill="#FFB74B"/>
<rect width="4.79657" height="29.881" rx="2.39828" transform="matrix(0 -1 1 -0.000535237 143.434 59.8125)" fill="#FFB74B"/>
<rect width="4.78095" height="14.4" rx="2.39048" transform="matrix(1 0 0.000531378 1 143.434 45.4004)" fill="#FFB74B"/>
<path d="M146.577 22.7177L146.577 22.7177C145.893 20.3605 145.551 17.9462 145.551 15.4737C145.551 13.6277 146.188 12.075 147.465 10.7945C148.742 9.51412 150.291 8.87632 152.131 8.87632H155.507C156.494 8.87632 157.418 8.60055 158.291 8.22935C158.912 7.9654 159.527 7.6439 160.121 7.33294C160.354 7.21073 160.585 7.09015 160.811 6.97532L160.811 6.97526C161.632 6.55888 162.517 6.35 163.471 6.35C163.904 6.35 164.261 6.49797 164.561 6.80016L164.562 6.80072C164.863 7.10225 165.011 7.46004 165.011 7.89474V7.89466C165.011 7.89466 165.011 7.8987 165.01 7.90783C165.01 7.91735 165.008 7.93027 165.006 7.94704C165 7.98084 164.992 8.02513 164.98 8.08109C164.956 8.19046 164.92 8.33439 164.87 8.51464C164.786 8.74796 164.707 8.98605 164.634 9.2289C164.449 9.83471 164.675 10.4498 165.086 10.8613L166.132 11.9103C167.018 12.7983 168.221 13.2974 169.475 13.2974H170.051V13.9458V21.1159C170.051 21.3477 169.903 21.5533 169.682 21.6256L168.225 22.1039C167.181 22.4465 166.372 23.2787 166.057 24.3315L165.242 27.0643C164.784 28.5985 163.373 29.65 161.772 29.65H159.065C158.561 29.65 158.151 29.2402 158.151 28.7353C158.151 27.8467 157.431 27.1237 156.541 27.1237C155.652 27.1237 154.931 27.8467 154.931 28.7353C154.931 29.2402 154.522 29.65 154.018 29.65H151.312C149.71 29.65 148.299 28.5977 147.847 27.0624C147.42 25.6123 146.996 24.1641 146.577 22.7177ZM162.841 17.7184C163.287 17.7184 163.677 17.5633 163.986 17.2518L161.944 17.0046L161.696 17.2514C161.696 17.2516 161.696 17.2517 161.697 17.2519C162.006 17.5634 162.396 17.7184 162.841 17.7184ZM152.411 14.633C152.411 14.9418 152.662 15.1921 152.971 15.1921H158.805C159.14 15.1921 159.411 14.9207 159.411 14.5859V12.572C159.411 12.2372 159.14 11.9658 158.805 11.9658H152.971C152.662 11.9658 152.411 12.2161 152.411 12.5249V14.633Z" fill="#FFB74B" stroke="#FEE500" stroke-width="0.7"/>
<rect width="4.79657" height="31.0762" rx="2.39828" transform="matrix(0 -1 1 -0.000535237 88.4492 60.001)" fill="#FFB74B"/>
<rect width="4.78095" height="14.4" rx="2.39048" transform="matrix(1 0 0.000531378 1 88.4492 45.4004)" fill="#FFB74B"/>
<rect width="4.8" height="14.3429" rx="2.4" transform="matrix(0 -1 1 -0.00053562 111.158 30.0098)" fill="#FFB74B"/>
<rect width="4.78095" height="36" rx="2.39048" transform="matrix(1 0 0.000531378 1 111.156 8.40039)" fill="#FFB74B"/>
<rect width="4.8" height="23.9048" rx="2.4" transform="matrix(0 -1 1 -0.00053562 79 20.8135)" fill="#FFB74B"/>
<rect width="4.78095" height="24" rx="2.39048" transform="matrix(1 0 0.000531378 1 99.3164 16)" fill="#FFB74B"/>
<path d="M58.5696 12.2254C58.5689 10.9052 59.6386 9.83496 60.9588 9.83496C62.2791 9.83496 63.3499 10.9052 63.3506 12.2254L63.3735 55.4445C63.3742 56.7647 62.3046 57.835 60.9843 57.835C59.6641 57.835 58.5933 56.7647 58.5926 55.4445L58.5696 12.2254Z" fill="#FFB74B"/>
<path d="M53.2883 31.435C53.2883 43.09 43.878 52.535 32.2741 52.535C20.6701 52.535 11.2598 43.09 11.2598 31.435C11.2598 19.7799 20.6701 10.335 32.2741 10.335C43.878 10.335 53.2883 19.7799 53.2883 31.435Z" stroke="#FEE500"/>
<rect width="4.31144" height="19.4015" rx="2.15572" transform="matrix(-0.705511 -0.708699 0.705511 -0.708699 21.5137 43.9199)" fill="#FFB74B"/>
<rect width="4.31144" height="19.4014" rx="2.15572" transform="matrix(0.705511 -0.708699 0.705889 0.708323 29.3652 30.1699)" fill="#FFB74B"/>
</svg>
