<svg width="34" height="31" viewBox="0 0 34 31" fill="none" xmlns="http://www.w3.org/2000/svg">
<g filter="url(#filter0_d_131_66)">
<path d="M6.6 2.55556H10.5L13.1 0H20.9L23.5 2.55556H27.4C28.0896 2.55556 28.7509 2.8248 29.2385 3.30406C29.7261 3.78332 30 4.43334 30 5.11111V20.4444C30 21.1222 29.7261 21.7722 29.2385 22.2515C28.7509 22.7308 28.0896 23 27.4 23H6.6C5.91044 23 5.24912 22.7308 4.76152 22.2515C4.27393 21.7722 4 21.1222 4 20.4444V5.11111C4 4.43334 4.27393 3.78332 4.76152 3.30406C5.24912 2.8248 5.91044 2.55556 6.6 2.55556ZM17 6.38889C15.2761 6.38889 13.6228 7.062 12.4038 8.26015C11.1848 9.4583 10.5 11.0833 10.5 12.7778C10.5 14.4722 11.1848 16.0973 12.4038 17.2954C13.6228 18.4936 15.2761 19.1667 17 19.1667C18.7239 19.1667 20.3772 18.4936 21.5962 17.2954C22.8152 16.0973 23.5 14.4722 23.5 12.7778C23.5 11.0833 22.8152 9.4583 21.5962 8.26015C20.3772 7.062 18.7239 6.38889 17 6.38889ZM17 8.94444C18.0343 8.94444 19.0263 9.34831 19.7577 10.0672C20.4891 10.7861 20.9 11.7611 20.9 12.7778C20.9 13.7944 20.4891 14.7695 19.7577 15.4884C19.0263 16.2072 18.0343 16.6111 17 16.6111C15.9657 16.6111 14.9737 16.2072 14.2423 15.4884C13.5109 14.7695 13.1 13.7944 13.1 12.7778C13.1 11.7611 13.5109 10.7861 14.2423 10.0672C14.9737 9.34831 15.9657 8.94444 17 8.94444Z" fill="#F6F6F6"/>
</g>
<defs>
<filter id="filter0_d_131_66" x="0" y="0" width="34" height="31" filterUnits="userSpaceOnUse" color-interpolation-filters="sRGB">
<feFlood flood-opacity="0" result="BackgroundImageFix"/>
<feColorMatrix in="SourceAlpha" type="matrix" values="0 0 0 0 0 0 0 0 0 0 0 0 0 0 0 0 0 0 127 0" result="hardAlpha"/>
<feOffset dy="4"/>
<feGaussianBlur stdDeviation="2"/>
<feComposite in2="hardAlpha" operator="out"/>
<feColorMatrix type="matrix" values="0 0 0 0 0 0 0 0 0 0 0 0 0 0 0 0 0 0 0.1 0"/>
<feBlend mode="normal" in2="BackgroundImageFix" result="effect1_dropShadow_131_66"/>
<feBlend mode="normal" in="SourceGraphic" in2="effect1_dropShadow_131_66" result="shape"/>
</filter>
</defs>
</svg>
