<svg width="245" height="249" viewBox="0 0 245 249" fill="none" xmlns="http://www.w3.org/2000/svg">
<mask id="mask0_7_66" style="mask-type:alpha" maskUnits="userSpaceOnUse" x="6" y="10" width="239" height="239">
<rect x="6.91528" y="10.8669" width="238.085" height="238.085" rx="50" fill="#D9D9D9"/>
</mask>
<g mask="url(#mask0_7_66)">
<path d="M165.638 119.989C168.449 119.989 170.804 119.037 172.702 117.132C174.606 115.234 175.559 112.88 175.559 110.069C175.559 107.258 174.606 104.9 172.702 102.996C170.804 101.098 168.449 100.149 165.638 100.149C162.828 100.149 160.473 101.098 158.575 102.996C156.671 104.9 155.718 107.258 155.718 110.069C155.718 112.88 156.671 115.234 158.575 117.132C160.473 119.037 162.828 119.989 165.638 119.989ZM86.2769 98.5022C86.2769 99.4115 87.0141 100.149 87.9234 100.149H133.861C134.975 100.149 135.878 99.2456 135.878 98.1316V82.3253C135.878 81.2113 134.975 80.3083 133.861 80.3083H87.9234C87.0141 80.3083 86.2769 81.0454 86.2769 81.9547V98.5022ZM74.8553 219.191C61.0311 219.191 48.8425 210.113 44.9277 196.855C41.5682 185.477 38.239 174.114 34.9399 162.765C29.4838 144.003 26.7557 124.784 26.7557 105.109C26.7557 89.8978 32.0465 77.0015 42.628 66.42C53.2096 55.8384 66.1058 50.5477 81.3168 50.5477H107.917C122.412 50.5477 135.472 42.4576 148.407 35.9154C155.265 32.4433 162.662 30.7073 170.599 30.7073C174.732 30.7073 178.244 32.1556 181.134 35.0523C184.031 37.9424 185.479 41.4542 185.479 45.5876C185.479 46.4143 185.066 48.3156 184.239 51.2917C183.577 53.1104 182.959 54.9688 182.384 56.8668C181.284 60.4653 182.594 64.279 185.255 66.9396L193.519 75.2039C199.963 81.6481 208.703 85.2684 217.816 85.2684H222.525C223.98 85.2684 225.16 86.4478 225.16 87.9028V93.1097V149.42C225.16 152.428 223.227 155.095 220.368 156.031L208.881 159.792C201.523 162.201 195.812 168.062 193.593 175.479L187.192 196.88C183.232 210.12 171.051 219.191 157.231 219.191H135.878C130.399 219.191 125.958 214.75 125.958 209.271C125.958 203.792 121.516 199.351 116.037 199.351C110.559 199.351 106.117 203.792 106.117 209.271C106.117 214.75 101.676 219.191 96.1971 219.191H74.8553Z" fill="#FFB546"/>
</g>
<circle cx="48.9012" cy="48.9012" r="43.9012" fill="white" stroke="#FFB340" stroke-width="10"/>
<rect x="44.9053" y="28.1609" width="9.1333" height="24.736" rx="4.56665" fill="#F2AE49"/>
<rect x="42.9177" y="50.4014" width="9.1333" height="24.736" rx="4.56665" transform="rotate(-45 42.9177 50.4014)" fill="#F2AE49"/>
</svg>
